<svg width="16" height="16" viewBox="0 0 16 16" fill="none" xmlns="http://www.w3.org/2000/svg">
<path fill-rule="evenodd" clip-rule="evenodd" d="M10.9951 0C11.1862 0 11.3773 8.80794e-05 11.5684 0.000976562C11.7291 0.00186483 11.89 0.00337483 12.0508 0.0078125C12.4014 0.0171458 12.7559 0.0383637 13.1025 0.100586C13.4539 0.164128 13.7812 0.267153 14.1006 0.429688C14.7331 0.751851 15.2479 1.266 15.5703 1.89844C15.733 2.21844 15.8363 2.54644 15.8994 2.89844C15.9616 3.24505 15.9829 3.59861 15.9922 3.94922C15.9966 4.11 15.9981 4.27086 15.999 4.43164L16 5.00488V10.9951C16 11.1861 16.0004 11.3774 15.999 11.5684C15.9981 11.7291 15.9957 11.89 15.9912 12.0508C15.9819 12.401 15.9616 12.7549 15.8994 13.1016C15.8363 13.4535 15.732 13.7807 15.5693 14.1006C15.247 14.733 14.7331 15.2471 14.1006 15.5693C13.781 15.732 13.4536 15.8363 13.1016 15.8994C12.755 15.9616 12.4013 15.9819 12.0508 15.9912C11.89 15.9957 11.7291 15.9981 11.5684 15.999C11.3774 15.9999 11.1861 16 10.9951 16H5.00488C4.8138 16 4.62272 16.0004 4.43164 15.999C4.27086 15.9981 4.11 15.9956 3.94922 15.9912C3.59855 15.9819 3.24413 15.9616 2.89746 15.8994C2.54602 15.8359 2.21887 15.7319 1.89941 15.5693C1.26681 15.2471 0.752067 14.7331 0.429688 14.1006C0.26714 13.7807 0.163683 13.4534 0.100586 13.1016C0.0383701 12.7549 0.0171473 12.4014 0.0078125 12.0508C0.00337137 11.89 0.00186611 11.7291 0.000976562 11.5684C8.83713e-05 11.3774 5.47255e-10 11.1861 0 10.9951V5.00488C0 4.81377 8.76833e-05 4.62231 0.000976562 4.43164C0.00186611 4.27087 0.00337137 4.10999 0.0078125 3.94922C0.0171473 3.59903 0.0383702 3.24507 0.100586 2.89844C0.163683 2.54663 0.26714 2.21925 0.429688 1.89941C0.752067 1.26691 1.26681 0.752852 1.89941 0.430664C2.21887 0.268055 2.54558 0.163697 2.89746 0.100586C3.24413 0.0379193 3.59855 0.0175903 3.94922 0.0078125C4.11 0.00337483 4.27086 0.00186483 4.43164 0.000976562C4.62272 8.80766e-05 4.8138 0 5.00488 0H10.9951ZM10.8877 2.51758L6.13184 3.47656L6.12988 3.47754C6.00621 3.50374 5.90898 3.54743 5.83398 3.61035C5.74332 3.68635 5.69294 3.79459 5.67383 3.91992C5.66983 3.94667 5.66311 4.00063 5.66309 4.08008V10.0322C5.66309 10.1713 5.65184 10.3068 5.55762 10.4219C5.4635 10.5368 5.34718 10.5711 5.21094 10.5986L4.90039 10.6621C4.5075 10.7412 4.25109 10.795 4.01953 10.8848C3.7986 10.9705 3.63283 11.0793 3.50098 11.2178C3.23921 11.492 3.13251 11.8645 3.16895 12.2129C3.20006 12.5102 3.33468 12.7947 3.56445 13.0049C3.71952 13.147 3.91328 13.255 4.1416 13.3008C4.37842 13.3483 4.63123 13.3325 5 13.2578C5.19615 13.2183 5.37981 13.1561 5.55469 13.0527C5.72802 12.9505 5.87716 12.8137 5.99316 12.6475C6.10953 12.4808 6.18427 12.2954 6.22559 12.0986C6.26822 11.8957 6.27831 11.7123 6.27832 11.5098V6.34668C6.2784 6.07059 6.35708 5.99755 6.58008 5.94336C6.60436 5.93846 10.5339 5.14624 10.7178 5.11035C10.9748 5.06117 11.0957 5.13466 11.0957 5.4043V8.92773C11.0957 9.06715 11.0948 9.20873 11 9.32422C10.9058 9.43933 10.7888 9.4744 10.6523 9.50195L10.3418 9.56445C9.94898 9.64355 9.69344 9.69736 9.46191 9.78711C9.24058 9.87289 9.07438 9.98243 8.94238 10.1211C8.68086 10.3952 8.56524 10.767 8.60156 11.1152C8.63267 11.4125 8.77615 11.697 9.00586 11.9072C9.16096 12.0494 9.35458 12.1549 9.58301 12.2012C9.8199 12.2487 10.0725 12.2314 10.4414 12.1572C10.6378 12.1177 10.822 12.0586 10.9971 11.9551C11.1703 11.8529 11.3186 11.716 11.4346 11.5498C11.5509 11.3832 11.6267 11.1978 11.668 11.001C11.7105 10.7981 11.7119 10.6146 11.7119 10.4121V2.86523C11.7128 2.5916 11.5686 2.42233 11.3115 2.44434C11.2729 2.44789 10.9294 2.50907 10.8877 2.51758Z" fill="#6B7280"/>
</svg>
