<svg width="16" height="16" viewBox="0 0 16 16" fill="none" xmlns="http://www.w3.org/2000/svg">
<path d="M3.05025 3.05027C0.316582 5.78394 0.316582 10.2161 3.05025 12.9498C3.24551 13.145 3.24551 13.4616 3.05025 13.6569C2.85499 13.8521 2.53841 13.8521 2.34315 13.6569C-0.781049 10.5327 -0.781049 5.46736 2.34315 2.34316C2.53841 2.1479 2.85499 2.1479 3.05025 2.34316C3.24551 2.53843 3.24551 2.85501 3.05025 3.05027ZM5.17157 5.17159C3.60948 6.73369 3.60948 9.26635 5.17157 10.8284C5.36684 11.0237 5.36683 11.3403 5.17157 11.5356C4.97631 11.7308 4.65973 11.7308 4.46447 11.5356C2.51184 9.58293 2.51184 6.4171 4.46447 4.46448C4.65973 4.26922 4.97631 4.26922 5.17157 4.46448C5.36683 4.65975 5.36684 4.97633 5.17157 5.17159ZM10.8284 4.46448C11.0237 4.26922 11.3403 4.26922 11.5355 4.46448C13.4882 6.4171 13.4882 9.58293 11.5355 11.5356C11.3403 11.7308 11.0237 11.7308 10.8284 11.5356C10.6332 11.3403 10.6332 11.0237 10.8284 10.8284C12.3905 9.26635 12.3905 6.73369 10.8284 5.17159C10.6332 4.97633 10.6332 4.65975 10.8284 4.46448ZM12.9497 2.34316C13.145 2.1479 13.4616 2.1479 13.6569 2.34316C16.781 5.46736 16.781 10.5327 13.6569 13.6569C13.4616 13.8521 13.145 13.8521 12.9497 13.6569C12.7545 13.4616 12.7545 13.145 12.9497 12.9498C15.6834 10.2161 15.6834 5.78394 12.9497 3.05027C12.7545 2.85501 12.7545 2.53842 12.9497 2.34316Z" fill="#6B7280"/>
<path d="M6.00009 8.00001C6.00009 6.89544 6.89552 6.00001 8.00009 6.00001C9.10466 6.00001 10.0001 6.89544 10.0001 8.00001C10.0001 8.93193 9.3627 9.71498 8.50009 9.937V15.5C8.50009 15.7762 8.27623 16 8.00009 16C7.72395 16 7.50009 15.7762 7.50009 15.5V9.937C6.63747 9.71498 6.00009 8.93193 6.00009 8.00001Z" fill="#6B7280"/>
</svg>
