<svg width="16" height="16" viewBox="0 0 16 16" fill="none" xmlns="http://www.w3.org/2000/svg">
<path fill-rule="evenodd" clip-rule="evenodd" d="M14 0C15.1046 0 16 0.895431 16 2V14C16 15.1046 15.1046 16 14 16H2C0.895431 16 0 15.1046 0 14V0H14ZM4.58984 7.49805C3.98449 7.49805 3.49933 7.66745 3.13477 8.00586C2.77018 8.3444 2.58789 8.83919 2.58789 9.49023V12.5957C2.58789 13.2533 2.76367 13.748 3.11523 14.0801C3.46677 14.412 3.93566 14.5781 4.52148 14.5781C4.90544 14.5781 5.24424 14.5032 5.53711 14.3535C5.83644 14.2038 6.07102 13.9791 6.24023 13.6797C6.40944 13.3802 6.49414 13.009 6.49414 12.5664V12.3809H5.27344V12.5566C5.27344 12.856 5.21149 13.084 5.08789 13.2402C4.96426 13.3964 4.78822 13.4745 4.56055 13.4746C4.31324 13.4681 4.1276 13.3801 4.00391 13.2109C3.88021 13.0417 3.81836 12.791 3.81836 12.459V9.68555C3.81836 9.32096 3.8737 9.05078 3.98438 8.875C4.10157 8.69934 4.29371 8.61133 4.56055 8.61133C4.77521 8.61142 4.948 8.68629 5.07812 8.83594C5.20822 8.98568 5.27344 9.21693 5.27344 9.5293V9.73438H6.50391V9.51953C6.50391 9.07039 6.42247 8.69594 6.25977 8.39648C6.10357 8.09711 5.88201 7.8724 5.5957 7.72266C5.31585 7.57297 4.9803 7.4981 4.58984 7.49805ZM8.80371 7.48828C8.41315 7.48828 8.07777 7.56972 7.79785 7.73242C7.52444 7.89517 7.31282 8.11983 7.16309 8.40625C7.01335 8.69271 6.93848 9.02474 6.93848 9.40234C6.93848 9.90365 7.03613 10.2975 7.23145 10.584C7.43327 10.8639 7.75558 11.1081 8.19824 11.3164L8.66699 11.5312C8.95987 11.6549 9.16832 11.7982 9.29199 11.9609C9.41564 12.1237 9.47754 12.3353 9.47754 12.5957C9.47754 12.9146 9.42215 13.1491 9.31152 13.2988C9.20738 13.4485 9.03147 13.5234 8.78418 13.5234C8.54334 13.5234 8.361 13.442 8.2373 13.2793C8.11361 13.1165 8.04525 12.8659 8.03223 12.5273H6.87012C6.88314 13.1914 7.04915 13.6992 7.36816 14.0508C7.68717 14.4023 8.14947 14.5781 8.75488 14.5781C9.36026 14.5781 9.83239 14.4056 10.1709 14.0605C10.5094 13.7155 10.6787 13.2206 10.6787 12.5762C10.6787 12.0359 10.568 11.6061 10.3467 11.2871C10.1254 10.9681 9.77693 10.7044 9.30176 10.4961L8.85254 10.3008C8.59218 10.1901 8.40658 10.0631 8.2959 9.91992C8.18522 9.77669 8.12988 9.58464 8.12988 9.34375C8.12988 9.07682 8.18522 8.87825 8.2959 8.74805C8.41308 8.6179 8.58241 8.55273 8.80371 8.55273C9.04449 8.55278 9.21389 8.6309 9.31152 8.78711C9.41565 8.94336 9.47429 9.17779 9.4873 9.49023H10.6104C10.5908 8.83926 10.4247 8.3444 10.1123 8.00586C9.79984 7.66085 9.36351 7.48832 8.80371 7.48828ZM12.8613 7.48828C12.4707 7.48828 12.1354 7.56966 11.8555 7.73242C11.582 7.89518 11.3704 8.11979 11.2207 8.40625C11.071 8.69271 10.9961 9.02474 10.9961 9.40234C10.9961 9.90365 11.0938 10.2975 11.2891 10.584C11.4909 10.8639 11.8132 11.1081 12.2559 11.3164L12.7246 11.5312C13.0176 11.6549 13.2259 11.7982 13.3496 11.9609C13.4733 12.1237 13.5352 12.3353 13.5352 12.5957C13.5352 12.9147 13.4798 13.1491 13.3691 13.2988C13.265 13.4486 13.0892 13.5234 12.8418 13.5234C12.6009 13.5234 12.4186 13.4421 12.2949 13.2793C12.1712 13.1165 12.1029 12.8659 12.0898 12.5273H10.9277C10.9408 13.1914 11.1068 13.6992 11.4258 14.0508C11.7448 14.4023 12.207 14.5781 12.8125 14.5781C13.418 14.5781 13.89 14.4056 14.2285 14.0605C14.5671 13.7155 14.7363 13.2207 14.7363 12.5762C14.7363 12.0358 14.6257 11.6061 14.4043 11.2871C14.1829 10.9681 13.8346 10.7044 13.3594 10.4961L12.9102 10.3008C12.6497 10.1901 12.4642 10.0632 12.3535 9.91992C12.2428 9.77669 12.1875 9.58464 12.1875 9.34375C12.1875 9.07682 12.2428 8.87825 12.3535 8.74805C12.4707 8.61784 12.64 8.55273 12.8613 8.55273C13.1022 8.55273 13.2715 8.63086 13.3691 8.78711C13.4733 8.94336 13.5319 9.17773 13.5449 9.49023H14.668C14.6484 8.83919 14.4824 8.3444 14.1699 8.00586C13.8574 7.66081 13.4212 7.48828 12.8613 7.48828Z" fill="#6B7280"/>
</svg>
