<svg width="16" height="16" viewBox="0 0 16 16" fill="none" xmlns="http://www.w3.org/2000/svg">
<path d="M10.7904 12.9117L9.17617 11.2975C8.80858 11.4286 8.41263 11.5 8 11.5C6.067 11.5 4.5 9.933 4.5 8.00001C4.5 7.58738 4.5714 7.19143 4.70253 6.82384L2.64112 4.76243C0.938717 6.27903 0 8.00001 0 8.00001C0 8.00001 3 13.5 8 13.5C9.01539 13.5 9.9483 13.2732 10.7904 12.9117Z" fill="#6B7280"/>
<path d="M5.20967 3.08834C6.05172 2.72683 6.98462 2.50001 8 2.50001C13 2.50001 16 8.00001 16 8.00001C16 8.00001 15.0613 9.72098 13.3589 11.2376L11.2975 9.17615C11.4286 8.80857 11.5 8.41263 11.5 8.00001C11.5 6.06701 9.933 4.50001 8 4.50001C7.58738 4.50001 7.19144 4.57141 6.82386 4.70253L5.20967 3.08834Z" fill="#6B7280"/>
<path d="M5.52485 7.64616C5.50847 7.76175 5.5 7.87989 5.5 8.00001C5.5 9.38072 6.61929 10.5 8 10.5C8.12012 10.5 8.23825 10.4915 8.35385 10.4752L5.52485 7.64616Z" fill="#6B7280"/>
<path d="M10.4752 8.35383L7.64618 5.52485C7.76176 5.50848 7.87989 5.50001 8 5.50001C9.38071 5.50001 10.5 6.6193 10.5 8.00001C10.5 8.12011 10.4915 8.23824 10.4752 8.35383Z" fill="#6B7280"/>
<path d="M13.6464 14.3536L1.64645 2.35356L2.35355 1.64645L14.3536 13.6465L13.6464 14.3536Z" fill="#6B7280"/>
</svg>
