<svg width="16" height="16" viewBox="0 0 16 16" fill="none" xmlns="http://www.w3.org/2000/svg">
<path fill-rule="evenodd" clip-rule="evenodd" d="M8 0L8.41211 0.00976562C10.2786 0.104483 11.9751 0.840683 13.2891 2C13.7304 2.38937 14.128 2.82662 14.4746 3.30371C15.1303 4.20624 15.6044 5.24972 15.8369 6.38184C15.9442 6.9044 16 7.44568 16 8C16 12.4183 12.4183 16 8 16C3.58172 16 1.28851e-07 12.4183 0 8C0 7.44568 0.0557518 6.9044 0.163086 6.38184C0.395568 5.24991 0.868869 4.20613 1.52441 3.30371C1.87114 2.82644 2.26942 2.3895 2.71094 2C4.12104 0.755907 5.97175 0 8 0ZM8 1C5.48232 1 3.27536 2.32932 2.04199 4.32422C2.4974 6.19188 6.66916 7.82722 6.5 8C6.00014 8.49982 5.46616 8.88373 5.5 9.5C5.56933 10.7478 7.75893 10.2736 8 11.5C8.20215 12.5319 6.9486 14.5 8 14.5C9.4999 14 11.7981 11.3144 12 9.5C12.1377 8.25757 9.99987 7.49996 8.5 7C7.67172 6.72398 7.44522 7.64824 7 7.5C6.55451 7.35134 4.50042 5.50007 5.5 5C6.49977 4.50016 6.50018 5.00007 7 5.5C7.99968 5.99972 7.50033 4.50016 8 4C8.83833 3.16189 11.1601 2.60592 11.6045 1.99902C10.5515 1.36521 9.31854 1 8 1Z" fill="#6B7280"/>
</svg>
