<svg width="16" height="16" viewBox="0 0 16 16" fill="none" xmlns="http://www.w3.org/2000/svg">
<path fill-rule="evenodd" clip-rule="evenodd" d="M8 0C12.4183 1.28855e-07 16 3.58172 16 8C16 12.4183 12.4183 16 8 16C3.58172 16 1.28851e-07 12.4183 0 8C0 3.58172 3.58172 0 8 0ZM11.041 9C10.6144 9 10.2338 9.27051 10.0947 9.67383L9.92285 10.1729C9.84977 10.3847 9.70793 10.5661 9.51953 10.6875L8.7168 11.2051C8.43137 11.3892 8.25889 11.7053 8.25879 12.0449V12.5C8.25879 13.0523 8.7065 13.5 9.25879 13.5H9.51562C9.70768 13.5 9.89616 13.5552 10.0576 13.6592L10.8203 14.1514C10.9087 14.2083 11.0043 14.248 11.1025 14.2744C12.9586 13.3549 14.3464 11.6373 14.8203 9.56934C14.7933 9.54764 14.7651 9.52696 14.7354 9.50781L14.4199 9.30371C14.1271 9.11504 13.7571 9.09263 13.4434 9.24414L13.2744 9.32617C13.043 9.43797 12.7769 9.45578 12.5322 9.37695L11.5117 9.04785C11.4127 9.01594 11.3091 9.00002 11.2051 9H11.041ZM5.20898 11.6553C5.08888 11.5661 4.92121 11.5788 4.81543 11.6846C4.6647 11.8357 4.7147 12.091 4.91113 12.1748L5.67285 12.5L6.15332 12.7324C6.40923 12.8561 6.70686 12.6699 6.70703 12.3857C6.70703 12.1728 6.5342 12 6.32129 12H5.9043C5.75367 11.9999 5.60721 11.9512 5.48633 11.8613L5.20898 11.6553ZM8 1C4.13401 1 1 4.13401 1 8C1 9.02082 1.22048 9.98973 1.61328 10.8643L2.36719 9.5791C2.69136 9.02611 3.44493 8.91667 3.91309 9.35449L4.9873 10.3594C5.3711 10.7183 5.96885 10.7129 6.34668 10.3477L6.38477 10.3115C6.58707 10.116 6.68389 9.83537 6.64551 9.55664C6.56988 9.00832 7.0148 8.5223 7.56445 8.45703C8.29296 8.37052 9.15173 8.13318 9.29297 7.5C9.37905 7.11404 9.17843 6.67081 8.93164 6.2998C8.72445 5.98822 8.93159 5.50035 9.30566 5.5C9.42849 5.5 9.54571 5.44521 9.62402 5.35059L10.0166 4.87598C10.2127 4.63897 10.5079 4.50804 10.8135 4.47266C11.3679 4.40849 12.2208 4.19638 12.3965 3.5C12.581 2.76881 11.4097 2.55628 11.3984 1.87988C10.392 1.31982 9.23348 1 8 1ZM8.52441 9.96289C8.69164 9.6241 8.35315 9.2572 8.00195 9.39648C7.84479 9.45892 7.74121 9.61117 7.74121 9.78027V9.80762C7.74121 9.93045 7.69179 10.0484 7.60352 10.1338L7.49121 10.2412C7.34503 10.3825 7.34503 10.6175 7.49121 10.7588C7.6305 10.8934 7.85186 10.8933 7.99121 10.7588L8.18359 10.5723C8.2332 10.5243 8.2741 10.4681 8.30469 10.4062L8.52441 9.96289ZM11.8984 5.51855C11.6465 5.27512 11.2167 5.38042 10.9668 5.62598C10.7108 5.87732 10.3892 6.0322 10.0488 6.21094C9.71126 6.38824 9.78538 6.83602 10.1504 6.94629C10.2645 6.98065 10.3878 6.97082 10.4951 6.91895L11.7725 6.30176C12.0751 6.15547 12.1401 5.75219 11.8984 5.51855Z" fill="#6B7280"/>
</svg>
