<svg width="16" height="16" viewBox="0 0 16 16" fill="none" xmlns="http://www.w3.org/2000/svg">
<path d="M7 2.5C7 3.88071 5.88071 5 4.5 5C3.11929 5 2 3.88071 2 2.5C2 1.11929 3.11929 0 4.5 0C5.88071 0 7 1.11929 7 2.5Z" fill="#6B7280"/>
<path d="M11.2251 6.5528C11.0327 6.45655 10.8002 6.49428 10.648 6.64646L6.93783 11.3566L4.27889 8.58399C4.08058 8.45178 3.81652 8.47793 3.64799 8.64646L0.00154114 13V15C0.00154114 15.5523 0.449256 16 1.00154 16H15.0015C15.5538 16 16.0015 15.5523 16.0015 15V10.5L11.2251 6.5528Z" fill="#6B7280"/>
</svg>
