<svg width="16" height="16" viewBox="0 0 16 16" fill="none" xmlns="http://www.w3.org/2000/svg">
<path d="M12.9951 8.19512C12.9951 9.1317 12.6829 10.1073 12.2146 10.8878L14.2049 12.878C15.1805 11.5512 15.8049 9.91219 15.8049 8.19512C15.8049 6.4 15.1805 4.76097 14.2439 3.43414L12.1756 5.46341C12.6439 6.2439 12.9561 7.14146 12.9561 8.19512H12.9951Z" fill="#6B7280"/>
<path d="M7.99999 13.1512C6.6752 13.1512 5.40467 12.6249 4.4679 11.6882C3.53114 10.7514 3.00487 9.48088 3.00487 8.15609C3.00487 6.8313 3.53114 5.56077 4.4679 4.62401C5.40467 3.68724 6.6752 3.16097 7.99999 3.16097C9.01462 3.16097 9.95121 3.43414 10.7317 3.98048L12.6829 1.95121C11.522 1.07871 10.1407 0.54739 8.6944 0.417007C7.24805 0.286624 5.79402 0.56235 4.49581 1.21317C3.1976 1.864 2.10672 2.86411 1.34584 4.10103C0.584962 5.33795 0.184268 6.76263 0.18882 8.21483C0.193372 9.66703 0.602991 11.0892 1.37161 12.3213C2.14023 13.5534 3.23736 14.5467 4.53962 15.1893C5.84189 15.832 7.29762 16.0986 8.74312 15.9592C10.1886 15.8197 11.5665 15.2798 12.7219 14.4L10.7707 12.3707C9.95307 12.8857 9.00533 13.1565 8.03901 13.1512H7.99999Z" fill="#6B7280"/>
</svg>
