<svg width="16" height="16" viewBox="0 0 16 16" fill="none" xmlns="http://www.w3.org/2000/svg">
<path fill-rule="evenodd" clip-rule="evenodd" d="M7.49589 11.8184C8.11805 11.8184 8.59062 12.2919 8.59062 12.9092C8.59057 13.5264 8.11802 14 7.49589 14C6.89032 14 6.40902 13.5265 6.40898 12.9092C6.40898 12.2918 6.89029 11.8184 7.49589 11.8184ZM7.82402 2C10.0737 2.00008 11.5904 3.36048 11.5906 5.21484C11.5906 6.55796 10.9262 7.50286 9.80156 8.1875C8.70227 8.84607 8.3866 9.30582 8.38652 10.1982V10.2275C8.38637 10.5035 8.16248 10.7274 7.88652 10.7275H7.11601C6.84227 10.7275 6.61937 10.5071 6.61601 10.2334L6.61405 10.0342C6.57144 8.81219 7.09097 8.03195 8.25859 7.32129C9.28978 6.68865 9.65605 6.18561 9.65605 5.29297C9.65587 4.31387 8.89764 3.5948 7.73027 3.59473C6.72135 3.59473 6.01932 4.12443 5.79179 4.99707C5.72525 5.25149 5.51376 5.45801 5.25077 5.45801H4.47441C4.19062 5.45797 3.96063 5.22063 4.00566 4.94043C4.27881 3.2413 5.57516 2 7.82402 2Z" fill="#6B7280"/>
</svg>
