<svg width="16" height="16" viewBox="0 0 16 16" fill="none" xmlns="http://www.w3.org/2000/svg">
<path d="M6.59775 5.01287C6.69068 4.97125 6.79996 5.03899 6.79996 5.14674V6.30002C6.79996 6.57616 7.02382 6.80002 7.29996 6.80002C7.96705 6.80002 9.31294 6.80521 10.6009 7.62223C11.5839 8.24585 12.5907 9.38188 13.1948 11.4983C12.1743 10.5147 11.0096 9.98246 9.98993 9.69948C9.23656 9.49039 8.55904 9.4159 8.06888 9.39351C7.82333 9.38229 7.62342 9.38408 7.48282 9.38888C7.41248 9.39128 7.35685 9.39444 7.31764 9.39711C7.29803 9.39844 7.28251 9.39966 7.27129 9.4006L7.25772 9.40178L7.2534 9.40219L7.25187 9.40233C7.25161 9.40236 7.25075 9.40244 7.29996 9.90002L7.25075 9.40244C6.99492 9.42775 6.79996 9.64293 6.79996 9.90002V11.0533C6.79996 11.161 6.69068 11.2288 6.59775 11.1872L2.61422 8.25437C2.60051 8.24428 2.5863 8.23489 2.57164 8.22625C2.47608 8.16994 2.47608 8.0301 2.57164 7.97378C2.5863 7.96514 2.60051 7.95575 2.61422 7.94566L6.59775 5.01287ZM7.79996 10.3858C7.86795 10.3867 7.9426 10.3888 8.02324 10.3925C8.45652 10.4123 9.05712 10.4784 9.7225 10.6631C11.0491 11.0312 12.6194 11.8646 13.6629 13.7428C13.7792 13.9522 14.0276 14.0497 14.2552 13.9753C14.4829 13.9009 14.6258 13.6756 14.5961 13.438C14.1323 9.72758 12.7103 7.77611 11.1365 6.77781C9.89051 5.98737 8.6092 5.8359 7.79996 5.80689V5.14674C7.79996 4.25131 6.83056 3.71388 6.07529 4.15898C6.06062 4.16762 6.04641 4.177 6.0327 4.18709L2.03919 7.12723C1.32023 7.57439 1.32023 8.62564 2.03919 9.0728L6.0327 12.0129C6.04641 12.023 6.06062 12.0324 6.07529 12.0411C6.83056 12.4862 7.79996 11.9487 7.79996 11.0533V10.3858Z" fill="#6B7280"/>
</svg>
