<svg width="16" height="16" viewBox="0 0 16 16" fill="none" xmlns="http://www.w3.org/2000/svg">
<path fill-rule="evenodd" clip-rule="evenodd" d="M2.06055 4.06055C1.88077 7.59468 3.05287 10.2284 4.42579 12.0244C5.19232 13.0272 6.02144 13.7692 6.7129 14.2568C7.0588 14.5008 7.36514 14.6769 7.60547 14.79C7.72582 14.8467 7.82466 14.885 7.89942 14.9082C7.9608 14.9272 7.99242 14.9315 8 14.9326C8.00766 14.9315 8.03928 14.9272 8.10059 14.9082C8.17535 14.885 8.27418 14.8467 8.39454 14.79C8.63487 14.6769 8.94123 14.5008 9.28711 14.2568C9.76886 13.9171 10.3155 13.452 10.8633 12.8633L11.6084 13.6084C11.0117 14.2484 10.4127 14.758 9.87696 15.1357C9.49089 15.408 9.13297 15.6167 8.82911 15.7598C8.5483 15.892 8.24771 16 8 16C7.7523 16 7.45172 15.892 7.1709 15.7598C6.86704 15.6167 6.50912 15.408 6.12305 15.1357C5.3502 14.5907 4.44227 13.7751 3.60645 12.6816C1.97883 10.5524 0.62684 7.36734 1.0918 3.0918L2.06055 4.06055ZM8 0C8.6895 4.98848e-06 9.843 0.265264 10.9287 0.55957C12.0386 0.860449 13.1566 1.21503 13.8145 1.42969C14.3635 1.60884 14.7787 2.09388 14.8584 2.69238C15.3415 6.31816 14.5264 9.1832 13.3076 11.3076L12.5352 10.5352C13.5761 8.62005 14.2579 6.06825 13.8272 2.83594C13.8034 2.65895 13.6779 2.50374 13.499 2.44531C12.8481 2.23291 11.7481 1.8852 10.6621 1.59082C9.55177 1.28984 8.53086 1.06641 8 1.06641C7.46916 1.06641 6.44826 1.28983 5.3379 1.59082C4.87633 1.71594 4.41248 1.85148 3.98145 1.98145L3.12989 1.12988C3.70841 0.949909 4.39115 0.743944 5.07129 0.55957C6.15702 0.265261 7.31051 0 8 0Z" fill="#6B7280"/>
<path fill-rule="evenodd" clip-rule="evenodd" d="M13.6465 14.3535L0.646484 1.35353L1.35359 0.646423L14.3536 13.6464L13.6465 14.3535Z" fill="#6B7280"/>
</svg>
