<svg width="16" height="16" viewBox="0 0 16 16" fill="none" xmlns="http://www.w3.org/2000/svg">
<path fill-rule="evenodd" clip-rule="evenodd" d="M11.6084 13.6084C11.0117 14.2484 10.4127 14.758 9.87696 15.1357C9.49089 15.408 9.13297 15.6167 8.82911 15.7598C8.5483 15.892 8.24771 16 8 16C7.7523 16 7.45172 15.892 7.1709 15.7598C6.86704 15.6167 6.50912 15.408 6.12305 15.1357C5.3502 14.5907 4.44227 13.7751 3.60645 12.6816C1.97883 10.5524 0.62684 7.36734 1.0918 3.0918L11.6084 13.6084ZM8 0C8.6895 5.13962e-06 9.843 0.265264 10.9287 0.55957C12.0386 0.860449 13.1566 1.21503 13.8145 1.42969C14.3635 1.60884 14.7787 2.09388 14.8584 2.69238C15.3415 6.31816 14.5264 9.1832 13.3076 11.3076L3.12989 1.12988C3.70841 0.949909 4.39115 0.743944 5.07129 0.55957C6.15702 0.265261 7.31051 0 8 0Z" fill="#6B7280"/>
<path fill-rule="evenodd" clip-rule="evenodd" d="M13.6465 14.3535L0.646484 1.35353L1.35359 0.646423L14.3536 13.6464L13.6465 14.3535Z" fill="#6B7280"/>
</svg>
