<svg width="16" height="16" viewBox="0 0 16 16" fill="none" xmlns="http://www.w3.org/2000/svg">
<path fill-rule="evenodd" clip-rule="evenodd" d="M7.99972 0C8.68921 0 9.84271 0.265261 10.9284 0.55957C12.0385 0.860481 13.1573 1.21502 13.8152 1.42969C14.3639 1.60897 14.7794 2.09406 14.8591 2.69238C15.4556 7.16931 14.0721 10.4866 12.3943 12.6816C11.5584 13.7751 10.6495 14.5907 9.87667 15.1357C9.49065 15.4079 9.13265 15.6167 8.82882 15.7598C8.54805 15.8919 8.24738 16 7.99972 16C7.75207 15.9999 7.45133 15.8919 7.17062 15.7598C6.86676 15.6167 6.5088 15.408 6.12277 15.1357C5.34992 14.5907 4.44198 13.7751 3.60617 12.6816C1.92829 10.4866 0.544803 7.16948 1.14132 2.69238C1.22107 2.09393 1.6363 1.60887 2.18527 1.42969C2.84315 1.21501 3.96189 0.860485 5.07199 0.55957C6.15747 0.265336 7.31027 7.09381e-05 7.99972 0ZM8.00167 10C7.44939 10 7.00167 10.4477 7.00167 11C7.00167 11.5523 7.44939 12 8.00167 12C8.55392 12 9.00167 11.5523 9.00167 11C9.00167 10.4477 8.55392 10 8.00167 10ZM7.99972 4C7.46446 4.00018 7.04607 4.46247 7.09933 4.99512L7.44992 8.50293C7.47834 8.78506 7.71615 8.99984 7.99972 9C8.28341 9 8.52107 8.78513 8.54953 8.50293L8.90011 4.99512C8.95339 4.46236 8.53513 4 7.99972 4Z" fill="#6B7280"/>
</svg>
