<svg width="16" height="16" viewBox="0 0 16 16" fill="none" xmlns="http://www.w3.org/2000/svg">
<path fill-rule="evenodd" clip-rule="evenodd" d="M14 0C15.1046 0 16 0.895431 16 2V14C16 15.1046 15.1046 16 14 16H2C0.895431 16 0 15.1046 0 14V2C0 0.895431 0.895431 0 2 0H14ZM12.8613 7.48828C12.4707 7.48828 12.1354 7.56966 11.8555 7.73242C11.582 7.89518 11.3704 8.11979 11.2207 8.40625C11.071 8.69271 10.9961 9.02474 10.9961 9.40234C10.9961 9.90365 11.0938 10.2975 11.2891 10.584C11.4909 10.8639 11.8132 11.1081 12.2559 11.3164L12.7246 11.5312C13.0176 11.6549 13.2259 11.7982 13.3496 11.9609C13.4733 12.1237 13.5352 12.3353 13.5352 12.5957C13.5352 12.9147 13.4798 13.1491 13.3691 13.2988C13.265 13.4486 13.0892 13.5234 12.8418 13.5234C12.6009 13.5234 12.4186 13.4421 12.2949 13.2793C12.1712 13.1165 12.1029 12.8659 12.0898 12.5273H10.9277C10.9408 13.1914 11.1068 13.6992 11.4258 14.0508C11.7448 14.4023 12.207 14.5781 12.8125 14.5781C13.418 14.5781 13.89 14.4056 14.2285 14.0605C14.5671 13.7155 14.7363 13.2207 14.7363 12.5762C14.7363 12.0358 14.6257 11.6061 14.4043 11.2871C14.1829 10.9681 13.8346 10.7044 13.3594 10.4961L12.9102 10.3008C12.6497 10.1901 12.4642 10.0632 12.3535 9.91992C12.2428 9.77669 12.1875 9.58464 12.1875 9.34375C12.1875 9.07682 12.2428 8.87825 12.3535 8.74805C12.4707 8.61784 12.64 8.55273 12.8613 8.55273C13.1022 8.55273 13.2715 8.63086 13.3691 8.78711C13.4733 8.94336 13.5319 9.17773 13.5449 9.49023H14.668C14.6484 8.83919 14.4824 8.3444 14.1699 8.00586C13.8574 7.66081 13.4212 7.48828 12.8613 7.48828ZM7 7.5957V8.70898H8.30078V14.5H9.52148V8.70898H10.8096V7.5957H7Z" fill="#6B7280"/>
</svg>
