<svg width="16" height="16" viewBox="0 0 16 16" fill="none" xmlns="http://www.w3.org/2000/svg">
<path fill-rule="evenodd" clip-rule="evenodd" d="M12 0C14.2091 0 16 1.79086 16 4V6.5H15V4C15 2.34315 13.6569 1 12 1C10.3431 1 9 2.34315 9 4V6H9.5C10.8807 6 12 7.11929 12 8.5V13.5C12 14.8807 10.8807 16 9.5 16H2.5C1.11929 16 0 14.8807 0 13.5V8.5C8.05333e-09 7.11929 1.11929 6 2.5 6H8V4C8 1.79086 9.79086 0 12 0ZM2.5 7C1.67157 7 1 7.67157 1 8.5V13.5C1 14.3284 1.67157 15 2.5 15H9.5C10.3284 15 11 14.3284 11 13.5V8.5C11 7.67157 10.3284 7 9.5 7H2.5Z" fill="#6B7280"/>
</svg>
