<svg width="16" height="16" viewBox="0 0 16 16" fill="none" xmlns="http://www.w3.org/2000/svg">
<path d="M15.3846 6.11539C15.5956 5.90438 15.5784 5.554 15.3369 5.37866C13.2764 3.8824 10.7412 3 7.99996 3C5.2587 3 2.72353 3.8824 0.663013 5.37866C0.421541 5.554 0.404336 5.90438 0.615351 6.11539C0.793894 6.29394 1.07842 6.31191 1.28326 6.16428C3.17293 4.80234 5.49274 4 7.99996 4C10.5072 4 12.827 4.80234 14.7167 6.16428C14.9215 6.31191 15.206 6.29394 15.3846 6.11539Z" fill="#6B7280"/>
<path d="M13.2289 8.27103C13.445 8.05492 13.4225 7.69262 13.1662 7.52619C11.6791 6.56075 9.90501 6 7.99996 6C6.0949 6 4.32082 6.56075 2.83375 7.52619C2.57741 7.69262 2.55487 8.05492 2.77098 8.27103C2.94366 8.44371 3.21767 8.46769 3.42334 8.33603C4.74444 7.49031 6.31494 7 7.99996 7C9.68498 7 11.2555 7.4903 12.5766 8.33603C12.7822 8.46769 13.0563 8.44371 13.2289 8.27103Z" fill="#6B7280"/>
<path d="M11.046 10.4539C11.2722 10.2278 11.2308 9.84946 10.9458 9.70432C10.0615 9.25394 9.06039 9 7.99996 9C6.93952 9 5.9384 9.25394 5.05408 9.70432C4.76911 9.84946 4.72774 10.2278 4.95388 10.4539L4.96891 10.469C5.12929 10.6293 5.37652 10.6595 5.58014 10.5595C6.31036 10.2012 7.13166 10 7.99996 10C8.86825 10 9.68955 10.2012 10.4198 10.5595C10.6234 10.6595 10.8706 10.6293 11.031 10.469L11.046 10.4539Z" fill="#6B7280"/>
<path d="M9.06062 12.4393C9.25588 12.2441 9.25787 11.9207 9.0205 11.7796C8.72173 11.602 8.37276 11.5 7.99996 11.5C7.62716 11.5 7.27818 11.602 6.97941 11.7796C6.74204 11.9207 6.74403 12.2441 6.9393 12.4393L7.6464 13.1464C7.84167 13.3417 8.15825 13.3417 8.35351 13.1464L9.06062 12.4393Z" fill="#6B7280"/>
</svg>
