<svg width="20" height="20" viewBox="0 0 20 20" fill="none" xmlns="http://www.w3.org/2000/svg">
<path d="M7.39392 18.1569C6.88696 17.6499 6.5415 17.0032 6.40163 16.3C6.26193 15.5971 6.33322 14.8685 6.60741 14.2063C6.88175 13.544 7.34685 12.9778 7.9429 12.5794C8.15089 12.4405 8.37264 12.3261 8.60236 12.2335C8.51606 12.1687 8.43158 12.0986 8.35308 12.0201C7.89206 11.5589 7.66993 10.9505 7.68326 10.3463L7.68119 10.3456C7.68119 9.772 7.51095 9.21076 7.19229 8.73386C6.87372 8.2572 6.42097 7.88577 5.89132 7.6663C5.36142 7.4468 4.77794 7.38936 4.2154 7.50126C3.6529 7.61317 3.1356 7.88914 2.73006 8.29468C2.32471 8.70015 2.04923 9.21702 1.93733 9.77933C1.82543 10.3419 1.88287 10.9253 2.10236 11.4553C2.32184 11.9849 2.69324 12.4376 3.16993 12.7562C3.64683 13.0749 4.20807 13.2451 4.78164 13.2451C5.355 13.245 5.78222 12.9696 5.78222 12.9696C5.77979 12.9781 5.49523 13.9698 4.78164 13.9702C4.06468 13.9702 3.36348 13.7574 2.76735 13.3591C2.17127 12.9607 1.70621 12.3945 1.43186 11.7322C1.15767 11.07 1.08632 10.3414 1.22608 9.63846C1.36592 8.93541 1.71087 8.28923 2.21768 7.7823C2.72465 7.27534 3.37135 6.92988 4.07453 6.79001C4.77744 6.65028 5.50609 6.7216 6.16823 6.99579C6.83057 7.27014 7.39681 7.73521 7.79513 8.33128C7.93822 8.54543 8.05615 8.77369 8.15006 9.01077C8.21235 8.92891 8.27902 8.84866 8.35377 8.77391C8.82803 8.29974 9.45767 8.07936 10.0787 8.10686C10.6522 8.10684 11.2129 7.93583 11.6897 7.61727C12.1666 7.29863 12.5385 6.84548 12.758 6.31561C12.9775 5.78571 13.0349 5.20223 12.923 4.63969C12.8111 4.07722 12.5344 3.56056 12.1289 3.15504C11.7234 2.74957 11.2067 2.4728 10.6443 2.36092C10.0818 2.24909 9.49885 2.30721 8.96904 2.52665C8.43913 2.74615 7.98603 3.118 7.66738 3.59491C7.34892 4.07163 7.17857 4.63193 7.17848 5.20523C7.17848 5.7788 7.45469 6.20651 7.45469 6.20651C7.45469 6.20651 6.45432 5.92272 6.45411 5.20592C6.45411 4.48913 6.6664 3.78837 7.06454 3.19233C7.46285 2.59621 8.02908 2.1312 8.69144 1.85683C9.35382 1.58247 10.0827 1.5105 10.7858 1.65036C11.4889 1.79022 12.135 2.13511 12.642 2.64197C13.149 3.14894 13.4944 3.79564 13.6343 4.49882C13.7741 5.20188 13.7021 5.93094 13.4278 6.59321C13.1534 7.2555 12.6884 7.82183 12.0923 8.2201C11.8699 8.36868 11.6329 8.4913 11.3859 8.58678C11.4597 8.64435 11.5321 8.70538 11.6 8.77322C12.0886 9.26184 12.3089 9.91631 12.265 10.5555L12.267 10.5548C12.2671 11.1281 12.4374 11.6884 12.7559 12.1651C13.0746 12.642 13.5277 13.0139 14.0576 13.2334C14.5874 13.4528 15.1704 13.5109 15.7328 13.3991C16.2953 13.2872 16.8119 13.0105 17.2175 12.605C17.623 12.1995 17.8996 11.6828 18.0116 11.1203C18.1235 10.5578 18.066 9.97431 17.8465 9.44442C17.627 8.91452 17.2552 8.46142 16.7783 8.14276C16.3014 7.82417 15.7407 7.65459 15.1673 7.65456C14.6015 7.65456 14.1781 7.92281 14.1667 7.93008C14.1687 7.92284 14.4529 6.9295 15.1673 6.9295C15.8841 6.92953 16.5848 7.14174 17.1809 7.53993C17.777 7.93823 18.242 8.50448 18.5164 9.16683C18.7907 9.82912 18.8626 10.5581 18.7228 11.2612C18.583 11.9644 18.2368 12.6104 17.7298 13.1174C17.2229 13.6242 16.5774 13.9698 15.8744 14.1097C15.1712 14.2495 14.4424 14.1775 13.78 13.9032C13.1176 13.6288 12.5514 13.1638 12.1531 12.5677C11.9975 12.3347 11.8706 12.0857 11.7733 11.8261C11.7198 11.8932 11.6621 11.958 11.6 12.0201C11.1467 12.4734 10.5512 12.6984 9.95719 12.6934L9.74243 12.701C9.24442 12.7379 8.76271 12.9035 8.34548 13.1823C7.86885 13.5008 7.49738 13.9536 7.27792 14.4832C7.05842 15.0132 7.00098 15.5966 7.11288 16.1592C7.22478 16.7217 7.50073 17.2389 7.9063 17.6445C8.31185 18.05 8.82918 18.3261 9.39164 18.4379C9.95406 18.5497 10.5371 18.4916 11.0669 18.2722C11.5966 18.0527 12.0492 17.6814 12.3678 17.2046C12.6865 16.7278 12.8574 16.1671 12.8574 15.5936C12.8574 15.0201 12.5812 14.5924 12.5812 14.5924C12.5812 14.5924 13.5825 14.8767 13.5825 15.5936C13.5825 16.3105 13.369 17.0111 12.9707 17.6072C12.5724 18.2033 12.0061 18.6684 11.3438 18.9427C10.6816 19.2169 9.95303 19.2883 9.25008 19.1485C8.54698 19.0086 7.90086 18.6638 7.39392 18.1569Z" fill="#6B7280"/>
</svg>
