<svg width="16" height="16" viewBox="0 0 16 16" fill="none" xmlns="http://www.w3.org/2000/svg">
<path d="M3.46821 1.94827C5.30257 3.3254 7.27564 6.11763 8.00005 7.6161C8.72451 6.11774 10.6975 3.32537 12.5319 1.94827C13.8555 0.954596 16 0.185745 16 2.63227C16 3.12087 15.7199 6.7368 15.5556 7.32383C14.9844 9.36475 12.9033 9.8853 11.0521 9.57024C14.288 10.121 15.1111 11.9452 13.3334 13.7694C9.95717 17.2339 8.48076 12.9001 8.10228 11.7896C8.03293 11.5861 8.00048 11.4908 8 11.5718C7.99952 11.4908 7.96707 11.5861 7.89772 11.7896C7.5194 12.9001 6.04303 17.234 2.66658 13.7694C0.888822 11.9452 1.71196 10.1209 4.94786 9.57024C3.09662 9.8853 1.01547 9.36475 0.444439 7.32383C0.280131 6.73674 0 3.12082 0 2.63227C0 0.185745 2.14459 0.954596 3.46812 1.94827H3.46821Z" fill="#6B7280"/>
</svg>
