<svg width="16" height="16" viewBox="0 0 16 16" fill="none" xmlns="http://www.w3.org/2000/svg">
<path d="M11.9999 0C13.1045 0 13.9999 0.89544 13.9999 2V15.5C13.9999 15.6765 13.9065 15.8396 13.7548 15.9297C13.6032 16.0196 13.4154 16.0238 13.2606 15.9395L7.99989 13.0693L2.73915 15.9395C2.58433 16.0237 2.39661 16.0197 2.24501 15.9297C2.09327 15.8396 1.99989 15.6765 1.99989 15.5V2C1.9999 0.895476 2.89538 5.8624e-05 3.99989 0H11.9999ZM8.15907 4.09863C8.09374 3.96715 7.90599 3.96709 7.84071 4.09863L7.20595 5.38574C7.18008 5.43805 7.1299 5.47396 7.07216 5.48242L5.65224 5.68945C5.50664 5.71074 5.44828 5.88941 5.5536 5.99219L6.58095 6.99316C6.62274 7.0339 6.64245 7.09287 6.63271 7.15039L6.38954 8.56445C6.36466 8.70955 6.51703 8.82031 6.64735 8.75195L7.91689 8.08398C7.96865 8.05677 8.03113 8.05677 8.0829 8.08398L9.35243 8.75195C9.48279 8.82049 9.63514 8.70961 9.61024 8.56445L9.36806 7.15039C9.35827 7.09283 9.37702 7.03393 9.41884 6.99316L10.4462 5.99219C10.5516 5.88938 10.4933 5.71063 10.3475 5.68945L8.92763 5.48242C8.86995 5.4739 8.81967 5.43803 8.79384 5.38574L8.15907 4.09863Z" fill="#6B7280"/>
</svg>
