<svg width="16" height="16" viewBox="0 0 16 16" fill="none" xmlns="http://www.w3.org/2000/svg">
<path d="M8.21484 0.00488281C12.5338 0.118778 16 3.65358 16 8C16 12.3464 12.5338 15.8802 8.21484 15.9941C10.3241 15.8825 12 14.1371 12 12C12 9.85996 10.3194 8.11211 8.20605 8.00488L7.79395 7.99512C5.68056 7.88789 4 6.14004 4 4C4 1.79086 5.79086 0 8 0C8.07206 0 8.14372 0.00111932 8.21484 0.00488281Z" fill="#6B7280"/>
<path d="M8 16C3.58172 16 0 12.4183 0 8C0 3.58172 3.58172 0 8 0C12.4183 0 16 3.58172 16 8C16 12.4183 12.4183 16 8 16ZM1 8C1 11.866 4.13401 15 8 15C9.933 15 11.5 13.433 11.5 11.5C11.5 9.567 9.933 8 8 8C6.067 8 4.5 6.433 4.5 4.5C4.5 2.567 6.067 1 8 1C4.13401 1 1 4.13401 1 8Z" fill="#6B7280"/>
</svg>
