<svg width="16" height="16" viewBox="0 0 16 16" fill="none" xmlns="http://www.w3.org/2000/svg">
<path d="M13.5452 2.90702C12.5077 2.43088 11.4129 2.09105 10.2882 1.89602C10.278 1.8943 10.2675 1.89579 10.2582 1.90026C10.2489 1.90474 10.2412 1.91199 10.2362 1.92102C10.0952 2.17102 9.93917 2.49802 9.83017 2.75402C8.61778 2.57003 7.38456 2.57003 6.17217 2.75402C6.05059 2.46884 5.91304 2.19073 5.76017 1.92102C5.75504 1.91209 5.74733 1.90492 5.73804 1.90046C5.72876 1.896 5.71835 1.89445 5.70817 1.89602C4.58323 2.09026 3.48837 2.43012 2.45117 2.90702C2.4423 2.91041 2.43487 2.91677 2.43017 2.92502C0.356169 6.02402 -0.212831 9.04702 0.0661689 12.032C0.0671689 12.046 0.0761689 12.06 0.0871689 12.069C1.2949 12.9636 2.64577 13.6467 4.08217 14.089C4.09231 14.0922 4.10321 14.0921 4.11328 14.0887C4.12335 14.0853 4.13207 14.0787 4.13817 14.07C4.44617 13.65 4.72017 13.207 4.95617 12.741C4.95943 12.7347 4.96128 12.7277 4.96162 12.7205C4.96195 12.7134 4.96075 12.7063 4.95809 12.6996C4.95544 12.693 4.9514 12.687 4.94624 12.6821C4.94107 12.6772 4.93491 12.6734 4.92817 12.671C4.49733 12.5054 4.08007 12.3065 3.68017 12.076C3.67286 12.0718 3.66672 12.0658 3.66229 12.0586C3.65786 12.0515 3.65528 12.0433 3.65479 12.0349C3.65429 12.0264 3.6559 12.018 3.65945 12.0104C3.66301 12.0027 3.66841 11.9961 3.67517 11.991C3.75917 11.928 3.84317 11.862 3.92317 11.796C3.93024 11.7903 3.93872 11.7867 3.9477 11.7855C3.95668 11.7842 3.96583 11.7855 3.97417 11.789C6.59317 12.985 9.42817 12.985 12.0152 11.789C12.0238 11.7852 12.0333 11.7838 12.0427 11.785C12.052 11.7863 12.0608 11.7901 12.0682 11.796C12.1482 11.862 12.2322 11.928 12.3162 11.991C12.323 11.996 12.3284 12.0026 12.3321 12.0102C12.3357 12.0178 12.3374 12.0262 12.337 12.0346C12.3366 12.043 12.3341 12.0512 12.3298 12.0584C12.3255 12.0657 12.3194 12.0717 12.3122 12.076C11.9132 12.3086 11.4954 12.5073 11.0632 12.67C11.0565 12.6726 11.0504 12.6765 11.0454 12.6816C11.0403 12.6867 11.0364 12.6928 11.0338 12.6995C11.0313 12.7062 11.0302 12.7134 11.0306 12.7205C11.031 12.7277 11.0329 12.7347 11.0362 12.741C11.2762 13.206 11.5512 13.65 11.8532 14.07C11.8593 14.0787 11.868 14.0853 11.8781 14.0887C11.8881 14.0921 11.899 14.0922 11.9092 14.089C13.348 13.648 14.701 12.9649 15.9102 12.069C15.9162 12.0648 15.9212 12.0593 15.9248 12.0529C15.9284 12.0465 15.9306 12.0394 15.9312 12.032C16.2652 8.58102 15.3722 5.58302 13.5652 2.92602C13.5633 2.92163 13.5606 2.91767 13.5572 2.9144C13.5537 2.91113 13.5496 2.90861 13.5452 2.90702ZM5.34717 10.214C4.55817 10.214 3.90917 9.49002 3.90917 8.60202C3.90917 7.71302 4.54617 6.98902 5.34717 6.98902C6.15417 6.98902 6.79717 7.71902 6.78517 8.60202C6.78517 9.49002 6.14817 10.214 5.34717 10.214ZM10.6632 10.214C9.87517 10.214 9.22517 9.49002 9.22517 8.60202C9.22517 7.71302 9.86217 6.98902 10.6632 6.98902C11.4702 6.98902 12.1142 7.71902 12.1012 8.60202C12.1012 9.49002 11.4702 10.214 10.6632 10.214Z" fill="#6B7280"/>
</svg>
