<svg width="16" height="16" viewBox="0 0 16 16" fill="none" xmlns="http://www.w3.org/2000/svg">
<path d="M0.5 3L0.539556 3.87024C0.286283 4.23949 0.154232 4.69647 0.198287 5.18107L0.834651 12.1811C0.928302 13.2112 1.79203 14 2.82644 14H9V13H2.82644C2.30923 13 1.87737 12.6056 1.83054 12.0905L1.19418 5.09054C1.14094 4.50492 1.60204 4 2.19007 4H13.8099C14.398 4 14.8591 4.50492 14.8058 5.09054L14.5413 8H15.5455L15.8017 5.18107C15.9082 4.00984 14.986 3 13.8099 3H9.82843C9.29799 3 8.78929 2.78929 8.41421 2.41421L7.58579 1.58579C7.21071 1.21071 6.70201 1 6.17157 1H2.5C1.39543 1 0.5 1.89543 0.5 3ZM6.17157 2C6.43679 2 6.69114 2.10536 6.87868 2.29289L7.58579 3H2.19007C1.94936 3 1.71927 3.04231 1.50647 3.11964L1.50017 2.98112C1.51024 2.43755 1.95402 2 2.5 2H6.17157Z" fill="#6B7280"/>
<path d="M13.5 9C13.7761 9 14 9.22386 14 9.5V11H15.5C15.7761 11 16 11.2239 16 11.5C16 11.7761 15.7761 12 15.5 12H14V13.5C14 13.7761 13.7761 14 13.5 14C13.2239 14 13 13.7761 13 13.5V12H11.5C11.2239 12 11 11.7761 11 11.5C11 11.2239 11.2239 11 11.5 11H13V9.5C13 9.22386 13.2239 9 13.5 9Z" fill="#6B7280"/>
</svg>
