<svg width="16" height="16" viewBox="0 0 16 16" fill="none" xmlns="http://www.w3.org/2000/svg">
<path d="M0.00154114 3C0.00154114 1.89543 0.896972 1 2.00154 1H14.0015C15.1061 1 16.0015 1.89543 16.0015 3V13C16.0015 14.1046 15.1061 15 14.0015 15H2.00154C0.896972 15 0.00154114 14.1046 0.00154114 13V3ZM1.00154 12V13C1.00154 13.5523 1.44926 14 2.00154 14H14.0015C14.5538 14 15.0015 13.5523 15.0015 13V9.5L11.2251 7.55279C11.0327 7.45654 10.8002 7.49427 10.648 7.64645L6.93783 11.3566L4.27889 9.58397C4.08058 9.45177 3.81652 9.47791 3.64799 9.64645L1.00154 12ZM6.00154 5.5C6.00154 4.67157 5.32997 4 4.50154 4C3.67311 4 3.00154 4.67157 3.00154 5.5C3.00154 6.32843 3.67311 7 4.50154 7C5.32997 7 6.00154 6.32843 6.00154 5.5Z" fill="#6B7280"/>
</svg>
