<svg width="16" height="16" viewBox="0 0 16 16" fill="none" xmlns="http://www.w3.org/2000/svg">
<path fill-rule="evenodd" clip-rule="evenodd" d="M14 0C15.1046 0 16 0.895431 16 2V14C16 15.1046 15.1046 16 14 16H2C0.895431 16 0 15.1046 0 14V2C0 0.895431 0.895431 0 2 0H14ZM9.05273 7.5957V10.7227L9.0459 12.4746C9.0459 12.8065 8.98395 13.0573 8.86035 13.2266C8.73672 13.3957 8.5509 13.4836 8.30371 13.4902C8.07594 13.4902 7.90006 13.412 7.77637 13.2559C7.65267 13.0996 7.59082 12.8717 7.59082 12.5723V12.3965H6.37012V12.582C6.37012 13.0247 6.45475 13.3958 6.62402 13.6953C6.79329 13.9947 7.02773 14.2194 7.32715 14.3691C7.62004 14.5188 7.9588 14.5938 8.34277 14.5938C8.92852 14.5937 9.39754 14.4277 9.74902 14.0957C10.1004 13.7637 10.2764 13.2687 10.2764 12.6113L10.2832 10.8594V7.5957H9.05273ZM12.8613 7.48828C12.4707 7.48828 12.1354 7.56966 11.8555 7.73242C11.582 7.89518 11.3704 8.11979 11.2207 8.40625C11.071 8.69271 10.9961 9.02474 10.9961 9.40234C10.9961 9.90364 11.0938 10.2975 11.2891 10.584C11.4909 10.8639 11.8132 11.1081 12.2559 11.3164L12.7246 11.5312C13.0176 11.6549 13.2259 11.7982 13.3496 11.9609C13.4733 12.1237 13.5352 12.3353 13.5352 12.5957C13.5352 12.9147 13.4798 13.1491 13.3691 13.2988C13.265 13.4486 13.0892 13.5234 12.8418 13.5234C12.6009 13.5234 12.4186 13.4421 12.2949 13.2793C12.1712 13.1165 12.1029 12.8659 12.0898 12.5273H10.9277C10.9408 13.1914 11.1068 13.6992 11.4258 14.0508C11.7448 14.4023 12.207 14.5781 12.8125 14.5781C13.418 14.5781 13.89 14.4056 14.2285 14.0605C14.5671 13.7155 14.7363 13.2207 14.7363 12.5762C14.7363 12.0358 14.6257 11.6061 14.4043 11.2871C14.1829 10.9681 13.8346 10.7044 13.3594 10.4961L12.9102 10.3008C12.6497 10.1901 12.4642 10.0631 12.3535 9.91992C12.2428 9.77669 12.1875 9.58463 12.1875 9.34375C12.1875 9.07683 12.2428 8.87825 12.3535 8.74805C12.4707 8.61784 12.64 8.55274 12.8613 8.55273C13.1022 8.55273 13.2715 8.63086 13.3691 8.78711C13.4733 8.94336 13.5319 9.17773 13.5449 9.49023H14.668C14.6484 8.83919 14.4824 8.3444 14.1699 8.00586C13.8574 7.66081 13.4212 7.48828 12.8613 7.48828Z" fill="#6B7280"/>
</svg>
