<svg width="16" height="16" viewBox="0 0 16 16" fill="none" xmlns="http://www.w3.org/2000/svg">
<path fill-rule="evenodd" clip-rule="evenodd" d="M8 0C10.2091 0 12 1.79086 12 4V6.0498C13.1411 6.28142 14 7.29051 14 8.5V13.5C14 14.8807 12.8807 16 11.5 16H4.5C3.11929 16 2 14.8807 2 13.5V8.5C2 7.29051 2.85886 6.28142 4 6.0498V4C4 1.79086 5.79086 0 8 0ZM4.5 7C3.67157 7 3 7.67157 3 8.5V13.5C3 14.3284 3.67157 15 4.5 15H11.5C12.3284 15 13 14.3284 13 13.5V8.5C13 7.67157 12.3284 7 11.5 7H4.5ZM8 1C6.34315 1 5 2.34315 5 4V6H11V4C11 2.34315 9.65685 1 8 1Z" fill="#6B7280"/>
</svg>
