<svg width="16" height="16" viewBox="0 0 16 16" fill="none" xmlns="http://www.w3.org/2000/svg">
<path d="M11.4834 3C13.9605 3.00032 15.9999 6.1531 16.001 9.90723C16.001 12.1975 15.0152 13.6327 13.2441 13.6328C11.7007 13.6328 10.8487 12.7656 9.32031 10.208L8.65332 9.08496V9.08594L8.53516 8.8877C8.37412 8.61657 8.21886 8.36176 8.07129 8.12207C8.0484 8.08488 8.02551 8.04816 8.00293 8.01172C7.52322 8.86014 6.82715 10.0908 6.82715 10.0908C5.15361 13.0158 4.21196 13.6328 2.90332 13.6328C1.08548 13.6326 7.97519e-05 12.2172 0 9.97363C0 6.38795 1.99462 3 4.59766 3L4.83496 3.00781C4.84966 3.00874 4.86426 3.01061 4.87891 3.01172C4.90864 3.01396 4.93824 3.01655 4.96777 3.01953C5.05018 3.02786 5.13185 3.03849 5.21289 3.05273C5.22623 3.05508 5.23962 3.05706 5.25293 3.05957C5.28492 3.0656 5.31682 3.07211 5.34863 3.0791C5.39185 3.0886 5.43462 3.10003 5.47754 3.11133C5.49669 3.11637 5.51606 3.12057 5.53516 3.12598C5.60119 3.14466 5.66695 3.16537 5.73242 3.18848C5.74416 3.19262 5.75586 3.19689 5.76758 3.20117C5.8222 3.22115 5.87633 3.24344 5.93066 3.2666C5.94886 3.27436 5.96719 3.28192 5.98535 3.29004C6.04763 3.31788 6.10981 3.34771 6.17188 3.37988C6.18721 3.38783 6.20245 3.39608 6.21777 3.4043C6.27157 3.43315 6.32517 3.46387 6.37891 3.49609C6.39374 3.50499 6.40899 3.51331 6.42383 3.52246C6.44985 3.53852 6.47495 3.55638 6.50098 3.57324C6.5703 3.61817 6.6395 3.66604 6.70898 3.7168C6.73584 3.73642 6.76314 3.75586 6.79004 3.77637C6.97053 3.91397 7.15181 4.07177 7.33594 4.25098C7.36241 4.27675 7.38845 4.30342 7.41504 4.33008C7.48216 4.39739 7.55023 4.46694 7.61816 4.54004C7.64442 4.56829 7.67087 4.59684 7.69727 4.62598C7.86697 4.81332 8.0402 5.01832 8.2168 5.24316C9.14511 3.9879 10.1715 3 11.4834 3ZM4.5752 4.73828C3.02823 4.7387 1.73047 7.4 1.73047 10.0029C1.73052 11.2196 2.19255 11.9023 2.96973 11.9023C3.72494 11.9023 4.19423 11.4252 5.55078 9.29883C5.55078 9.29883 6.16668 8.3191 7.18457 6.75781C7.03247 6.54009 6.88857 6.34307 6.75 6.16602C6.65688 6.04703 6.56663 5.93679 6.47852 5.83496C6.33409 5.66803 6.19562 5.52376 6.06152 5.39941C5.60543 4.97658 5.19839 4.7875 4.7627 4.74707C4.70093 4.74134 4.63831 4.73828 4.5752 4.73828ZM11.373 4.37207C10.5436 4.37209 9.84635 5.0214 9.00098 6.32617C9.1179 6.49964 9.2375 6.68126 9.35938 6.87109C9.48144 7.06127 9.60531 7.26008 9.73242 7.4668L10.6709 9.03125C12.1377 11.3913 12.5067 11.9019 13.2793 11.9023C14.0854 11.9023 14.4745 11.213 14.4746 10.0254C14.4746 6.90903 13.0961 4.37207 11.373 4.37207Z" fill="#6B7280"/>
</svg>
