<svg width="16" height="16" viewBox="0 0 16 16" fill="none" xmlns="http://www.w3.org/2000/svg">
<path d="M14.949 6.54741C15.1304 6.00867 15.1931 5.43795 15.133 4.87338C15.0729 4.30881 14.8914 3.76339 14.6005 3.27356C13.7158 1.75441 11.9375 0.972984 10.2008 1.34018C9.71997 0.812561 9.10683 0.419038 8.423 0.199132C7.73917 -0.0207747 7.00871 -0.059323 6.305 0.0873583C5.60128 0.23404 4.94908 0.560787 4.4139 1.03478C3.87871 1.50878 3.47938 2.11334 3.25601 2.78774C2.69212 2.9018 2.1594 3.13327 1.69346 3.46669C1.22752 3.8001 0.839095 4.22777 0.554138 4.72112C-0.340238 6.23786 -0.137175 8.15102 1.0562 9.45223C0.874165 9.99071 0.810804 10.5613 0.870355 11.1259C0.929906 11.6905 1.111 12.236 1.40151 12.726C2.28739 14.2457 4.06677 15.0271 5.80439 14.6594C6.18643 15.0838 6.65585 15.4228 7.18131 15.654C7.70677 15.8852 8.27618 16.0031 8.85152 15.9999C10.6316 16.0015 12.2086 14.868 12.7524 13.196C13.3162 13.0817 13.8488 12.8502 14.3147 12.5168C14.7806 12.1834 15.1691 11.7558 15.4542 11.2626C16.3378 9.74858 16.1339 7.84578 14.949 6.54741ZM8.85152 14.9528C8.14099 14.9539 7.45274 14.7083 6.90745 14.2589L7.00339 14.2053L10.2328 12.3665C10.3131 12.32 10.3799 12.2537 10.4264 12.1741C10.473 12.0945 10.4977 12.0043 10.4982 11.9123V7.42107L11.8635 8.20009C11.8771 8.20693 11.8866 8.21982 11.8891 8.2348V11.9565C11.8856 13.6098 10.5276 14.9493 8.85152 14.9528ZM2.32239 12.2025C1.96606 11.5956 1.83812 10.8842 1.96108 10.1934L2.05695 10.2502L5.28958 12.089C5.36956 12.1353 5.46062 12.1597 5.55336 12.1597C5.6461 12.1597 5.73716 12.1353 5.81714 12.089L9.76596 9.84334V11.3982C9.76559 11.4063 9.76339 11.4142 9.75951 11.4213C9.75564 11.4284 9.75019 11.4345 9.74358 11.4392L6.47264 13.3001C5.01908 14.1261 3.16201 13.6349 2.32239 12.2025ZM1.47183 5.26365C1.83063 4.65282 2.39697 4.18693 3.07058 3.94845V7.73321C3.06936 7.82465 3.09305 7.91475 3.13916 7.99408C3.18528 8.07342 3.25214 8.13909 3.33276 8.18425L7.26239 10.4205L5.89708 11.1995C5.8897 11.2033 5.88147 11.2054 5.87311 11.2054C5.86475 11.2054 5.85652 11.2033 5.84914 11.1995L2.58458 9.34187C1.13389 8.51242 0.636388 6.682 1.47183 5.24793V5.26365ZM12.6885 7.83419L8.74595 5.57591L10.1081 4.80004C10.1155 4.79616 10.1238 4.79414 10.1321 4.79414C10.1405 4.79414 10.1488 4.79616 10.1561 4.80004L13.4207 6.66091C13.9199 6.94501 14.3268 7.36332 14.594 7.86698C14.8611 8.37065 14.9776 8.9389 14.9296 9.50539C14.8817 10.0719 14.6713 10.6132 14.3232 11.0662C13.9751 11.5192 13.5035 11.8652 12.9635 12.0637V8.27888C12.9606 8.1876 12.9338 8.09862 12.8856 8.02066C12.8374 7.9427 12.7694 7.87844 12.6885 7.83419ZM14.0473 5.81882L13.9514 5.76198L10.7252 3.90745C10.6447 3.86088 10.5531 3.83632 10.4598 3.83632C10.3665 3.83632 10.2749 3.86088 10.1945 3.90745L6.24877 6.15315V4.59825C6.24793 4.59035 6.24927 4.58237 6.25264 4.57515C6.25602 4.56793 6.26131 4.56175 6.26795 4.55725L9.53252 2.69952C10.0329 2.4152 10.6049 2.27729 11.1818 2.3019C11.7587 2.32652 12.3165 2.51265 12.7901 2.83852C13.2637 3.1644 13.6334 3.61654 13.856 4.14208C14.0787 4.66762 14.145 5.24482 14.0473 5.80618V5.81882H14.0473ZM5.50383 8.57536L4.13852 7.79948C4.13169 7.79541 4.12586 7.78991 4.12143 7.78337C4.117 7.77683 4.11409 7.76941 4.11289 7.76163V4.04943C4.11365 3.47995 4.27874 2.92246 4.58887 2.44212C4.89899 1.96178 5.34133 1.57846 5.86418 1.33697C6.38702 1.09547 6.96875 1.00579 7.54136 1.0784C8.11397 1.15102 8.65379 1.38292 9.09771 1.74701L9.00177 1.80065L5.77239 3.63939C5.69203 3.6859 5.6253 3.75222 5.57878 3.83185C5.53225 3.91147 5.50752 4.00167 5.50702 4.09358L5.50383 8.57542V8.57536ZM6.24558 6.99833L8.0042 5.99853L9.76596 6.99839V8.99798L8.01058 9.99784L6.24883 8.99798L6.24558 6.99833Z" fill="#6B7280"/>
</svg>
