<svg width="16" height="16" viewBox="0 0 16 16" fill="none" xmlns="http://www.w3.org/2000/svg">
<path fill-rule="evenodd" clip-rule="evenodd" d="M8 0.1875C8.27785 0.187669 8.50336 0.411462 8.50336 0.6875V4.03027L11.5255 1.11035L11.5835 1.0625C11.7243 0.962072 11.9101 0.939541 12.0731 1.00781C12.2593 1.08607 12.3798 1.26788 12.3798 1.46875V4.71484H13.4966L13.5979 4.72461C13.8274 4.77112 14 4.97313 14 5.21484V10.7734C14 11.0496 13.7746 11.2734 13.4966 11.2734H12.3808V14.5312C12.3808 14.7337 12.2575 14.9159 12.0691 14.9932C11.8806 15.0703 11.6633 15.0275 11.5196 14.8838L8.50336 11.8652V15.3125C8.50336 15.5885 8.27785 15.8123 8 15.8125C7.72215 15.8123 7.49664 15.5885 7.49664 15.3125V11.8652L4.47944 14.8838C4.33582 15.0272 4.11916 15.0711 3.93085 14.9941C3.74247 14.9169 3.6192 14.7337 3.6192 14.5312V11.2734H2.50336C2.22536 11.2734 2 11.0496 2 10.7734V5.21484L2.00983 5.11426C2.05668 4.88631 2.26004 4.71484 2.50336 4.71484H3.6192V1.46875L3.6251 1.39453C3.65078 1.22413 3.76393 1.0763 3.92692 1.00781C4.11318 0.929786 4.32857 0.970405 4.47354 1.11035L7.49664 4.03027V0.6875C7.49664 0.411462 7.72215 0.187669 8 0.1875ZM4.62592 9.33301V13.3174L7.49664 10.4453V6.43555L4.62592 9.33301ZM8.50336 10.4463L11.3741 13.3174V9.33301L8.50336 6.43555V10.4463ZM12.2363 8.77832C12.3287 8.87181 12.3808 8.99786 12.3808 9.12891V10.2734H12.9933V5.71484H9.20138L12.2363 8.77832ZM3.00672 10.2734H3.6192V9.12891C3.6192 8.99784 3.67127 8.87181 3.76372 8.77832L6.79666 5.71484H3.00672V10.2734ZM4.62592 4.71484H6.76028L4.62592 2.65234V4.71484ZM9.23874 4.71484H11.3731V2.65234L9.23874 4.71484Z" fill="#6B7280"/>
</svg>
