<svg width="16" height="16" viewBox="0 0 16 16" fill="none" xmlns="http://www.w3.org/2000/svg">
<path fill-rule="evenodd" clip-rule="evenodd" d="M7.99985 0.000183105C8.68934 0.000183105 9.84283 0.265444 10.9286 0.559753C12.0383 0.860579 13.1564 1.21422 13.8143 1.42889C14.3633 1.60805 14.7795 2.09406 14.8592 2.69257C15.4556 7.16943 14.0722 10.4868 12.3944 12.6818C11.5586 13.7752 10.6496 14.5899 9.8768 15.1349C9.49065 15.4073 9.13286 15.6169 8.82895 15.7599C8.54817 15.8921 8.24751 16.0002 7.99985 16.0002C7.75217 16.0001 7.4515 15.8921 7.17074 15.7599C6.86685 15.6169 6.50899 15.4072 6.12289 15.1349C5.35012 14.5899 4.44199 13.7751 3.60629 12.6818C1.92838 10.4868 0.54497 7.16967 1.14145 2.69257C1.2212 2.09406 1.63637 1.60805 2.18539 1.42889C2.84331 1.21421 3.96214 0.860635 5.07211 0.559753C6.15764 0.265509 7.31042 0.000223442 7.99985 0.000183105ZM10.8534 5.14667C10.6581 4.95141 10.3416 4.95141 10.1463 5.14667L7.49985 7.79315L6.35336 6.64667C6.1581 6.45141 5.84159 6.45141 5.64633 6.64667C5.45124 6.84194 5.45112 7.15849 5.64633 7.3537L7.14633 8.8537C7.24006 8.94742 7.3673 9.00014 7.49985 9.00018C7.63238 9.00018 7.75961 8.94736 7.85336 8.8537L10.8534 5.8537C11.0486 5.65844 11.0486 5.34193 10.8534 5.14667Z" fill="#6B7280"/>
</svg>
