<svg width="16" height="16" viewBox="0 0 16 16" fill="none" xmlns="http://www.w3.org/2000/svg">
<path d="M8.99591 4.49737C9.09973 4.42116 9.09595 4.32939 9.18167 4.33937C9.26739 4.34936 9.20399 4.44094 9.08394 4.54571C8.96389 4.65049 8.77606 4.78951 8.62351 4.86902C8.33252 5.0207 7.99261 5.20465 7.63094 5.20465C7.26947 5.20465 6.98388 5.03759 6.77849 4.8748C6.6758 4.7935 6.59243 4.71257 6.52954 4.65378C6.42045 4.56766 6.43353 4.44687 6.47834 4.45042C6.55348 4.4598 6.56485 4.55873 6.61216 4.60298C6.67615 4.66289 6.75634 4.74048 6.85345 4.8175C7.04768 4.97135 7.30667 5.12113 7.63094 5.12113C7.95466 5.12113 8.33256 4.93108 8.56323 4.80169C8.69391 4.72839 8.86021 4.59698 8.99591 4.49737Z" fill="#6B7280"/>
<path d="M7.3409 3.7814C7.39456 3.76047 7.46332 3.74987 7.51366 3.77785C7.5252 3.78427 7.53779 3.79932 7.53387 3.81192C7.52182 3.85053 7.45958 3.84414 7.42362 3.86266C7.39206 3.87892 7.36666 3.91455 7.33118 3.91557C7.29732 3.91655 7.24463 3.90384 7.24021 3.87026C7.23439 3.82588 7.29919 3.79766 7.3409 3.7814Z" fill="#6B7280"/>
<path d="M7.92179 3.77785C7.97213 3.74986 8.0409 3.76047 8.09457 3.7814C8.13628 3.79766 8.20108 3.82588 8.19526 3.87026C8.19084 3.90384 8.13813 3.91655 8.10427 3.91557C8.06879 3.91454 8.0434 3.87892 8.01185 3.86266C7.97588 3.84414 7.91363 3.85053 7.90158 3.81192C7.89766 3.79932 7.91025 3.78427 7.92179 3.77785Z" fill="#6B7280"/>
<path fill-rule="evenodd" clip-rule="evenodd" d="M8.44602 0.0186063C10.9673 0.0221411 10.8256 2.67907 10.8098 4.11181C10.7995 5.0506 11.3186 5.68614 11.8494 6.35572C12.3236 6.9161 12.9445 7.73524 13.3 8.67551C13.5899 9.44148 13.7024 10.2893 13.4154 11.1406C13.4583 11.1568 13.5013 11.1773 13.5437 11.2024C13.5859 11.2275 13.628 11.2577 13.6689 11.2934C13.6693 11.2938 13.6698 11.2941 13.6702 11.2945C13.8767 11.4703 13.9413 11.7416 13.999 11.9931C14.0568 12.2448 14.1106 12.4811 14.2235 12.6086C14.2233 12.6084 14.2235 12.6087 14.2235 12.6086C14.5669 12.9898 14.7167 13.2753 14.7023 13.5297C14.6876 13.7842 14.4995 13.9594 14.2675 14.0993C13.8033 14.3792 13.1036 14.5911 12.682 15.1023C12.2395 15.6286 11.6918 15.9328 11.1772 15.9734C10.6632 16.014 10.1809 15.7766 9.9214 15.2575C9.92101 15.2569 9.92065 15.2562 9.92026 15.2556C9.88567 15.1892 9.86035 15.1193 9.84286 15.0467C9.17328 15.0839 8.59114 14.8808 8.12509 14.9184C7.43821 14.9561 7.00938 15.1217 6.61868 15.1235C6.46761 15.4555 6.17365 15.6713 5.81123 15.7539C5.3117 15.8679 4.68546 15.7533 4.06779 15.4303C3.49086 15.1245 2.75822 15.1522 2.21757 15.0394C1.94725 14.9829 1.70816 14.883 1.5917 14.6564C1.47561 14.4301 1.49683 14.1185 1.66167 13.6677C1.7132 13.5073 1.6743 13.2705 1.63598 13.0201C1.61756 12.8997 1.59933 12.7747 1.59933 12.6513C1.59933 12.5179 1.62055 12.3864 1.68585 12.2645C1.68622 12.2642 1.68641 12.2636 1.68659 12.2633C1.82538 11.9968 2.05422 11.8865 2.26259 11.8117C2.47096 11.7371 2.66035 11.6867 2.79337 11.5538C2.9357 11.4033 3.06352 11.1797 3.23636 10.995C3.25961 10.9704 3.2838 10.9464 3.30929 10.9235C3.22798 10.3862 3.31617 9.81861 3.50147 9.26178C3.89422 8.08168 4.72361 6.9481 5.31245 6.24782C5.81384 5.53526 5.96157 4.96074 6.0131 4.23181C6.05496 3.23516 5.30761 0.258428 8.12509 0.0316331C8.23653 0.0227031 8.34351 0.0184204 8.44602 0.0186063ZM11.0421 10.8848C11.0318 10.8899 11.0216 10.8952 11.0112 10.9008C10.7894 11.0223 10.6642 11.2381 10.5846 11.5572C10.5052 11.8763 10.4785 12.2897 10.4547 12.763V12.7641C10.432 13.1334 10.2628 13.5881 10.145 14.0307C10.0272 14.4735 9.96898 14.893 10.1089 15.159L10.1094 15.1602L10.1098 15.1611C10.3353 15.6134 10.7175 15.7972 11.1604 15.7622C11.6034 15.7272 12.1065 15.4577 12.5191 14.9667C12.9941 14.3913 13.7381 14.171 14.1578 13.9178C14.3679 13.7913 14.4815 13.6746 14.4905 13.5176C14.4996 13.3604 14.3941 13.1144 14.0659 12.7503C13.8951 12.5581 13.8494 12.288 13.7924 12.0404C13.7355 11.7929 13.6698 11.5719 13.5318 11.4549L13.5307 11.4539C13.3509 11.2969 13.1753 11.2848 12.9656 11.2898C12.9204 11.291 12.8739 11.2934 12.8261 11.2952C12.5872 11.57 12.0214 11.9068 11.6289 11.8033C11.2702 11.7129 11.0672 11.2947 11.0421 10.8848ZM3.83783 10.9157C3.8356 10.9159 3.83355 10.9159 3.83132 10.9157C3.64212 10.917 3.51653 11.0057 3.39114 11.1397C3.24249 11.2984 3.11541 11.5222 2.9463 11.7006L2.94537 11.7016L2.94426 11.7025C2.76138 11.8859 2.52974 11.941 2.33421 12.0111C2.13887 12.0811 1.98146 12.1551 1.87411 12.362L1.87337 12.3635C1.78946 12.5191 1.80788 12.7425 1.84546 12.9879C1.88304 13.2335 1.94054 13.4951 1.86296 13.7341L1.86239 13.736L1.86165 13.7379C1.705 14.1652 1.70667 14.4158 1.78034 14.5596C1.85402 14.7033 2.01477 14.7806 2.2609 14.832C2.75337 14.9349 3.52082 14.9008 4.16603 15.2426C4.16585 15.2426 4.16621 15.2426 4.16603 15.2426C4.74909 15.5476 5.33364 15.6458 5.76415 15.5473C6.19504 15.4489 6.4756 15.178 6.51356 14.6806V14.6793L6.51374 14.6781C6.54295 14.3864 6.31857 14.0052 6.02853 13.6257C5.73848 13.2459 5.39615 12.8736 5.2341 12.5352L5.23356 12.5343L4.62444 11.4242C4.41346 11.138 4.19448 10.9624 3.94332 10.9245C3.90611 10.9187 3.87094 10.9159 3.83783 10.9157ZM9.58389 4.84877C9.444 5.04821 9.19822 5.21937 8.88883 5.31612C8.88864 5.31612 8.88901 5.31593 8.88883 5.31612C8.74239 5.36375 8.58743 5.48635 8.39411 5.59686C8.21626 5.69862 8.00267 5.78792 7.72882 5.78792C7.70445 5.78792 7.6795 5.78719 7.65402 5.7857C7.38835 5.77026 7.21253 5.67258 7.07169 5.55947C6.93123 5.44654 6.82277 5.32225 6.6784 5.23723C6.67822 5.23723 6.67858 5.23741 6.6784 5.23723C6.6291 5.20913 6.51802 5.13416 6.48565 5.11072C6.42313 6.28988 5.63597 7.76951 5.25959 8.62253C5.00118 9.23741 4.84732 9.89473 4.82909 10.5392C4.14984 9.63352 4.64602 8.47334 4.91132 7.97062C5.20751 7.42067 5.25365 7.2696 5.18183 7.32244C4.91467 7.75816 4.49606 8.45249 4.33309 9.16635C4.24807 9.53826 4.23263 9.915 4.34295 10.2635C4.45309 10.6117 4.68825 10.9325 5.10909 11.1943C5.68173 11.5455 6.0715 11.8971 6.30164 12.2086C6.53177 12.5202 6.60397 12.7929 6.53216 12.9862C6.49607 13.083 6.4235 13.1582 6.32006 13.2053C6.2369 13.2428 6.13401 13.2627 6.01308 13.2626C6.07448 13.3399 6.13644 13.4183 6.19671 13.4971C6.29104 13.6207 6.38276 13.7459 6.46257 13.8722C7.64173 14.677 9.03039 14.3678 10.0309 13.654C10.1303 13.3124 10.2285 12.9898 10.2432 12.7515C10.267 12.2772 10.2922 11.8551 10.379 11.5061C10.4661 11.1567 10.6228 10.872 10.9095 10.715C10.9556 10.6899 11.0014 10.6698 11.0471 10.6538C11.0503 10.6244 11.0546 10.5952 11.0598 10.5667C11.142 10.0216 11.6287 9.995 12.2395 10.2636C12.8285 10.53 13.0495 10.7628 12.9496 11.0783C12.9534 11.0783 12.9569 11.0783 12.9604 11.0781C12.9991 11.0772 13.039 11.077 13.0793 11.0785C13.2017 10.6804 12.947 10.3887 12.2581 10.0532C12.2118 10.0313 12.166 10.011 12.1212 9.99237C12.2131 9.61861 12.1949 9.2398 12.1091 8.87963C11.9212 8.08968 11.4045 7.38996 11.0112 7.04186C10.9385 7.03889 10.9456 7.10253 11.092 7.24466C11.4548 7.57843 12.2479 8.77674 11.8187 9.88948C11.6961 9.85806 11.5815 9.84299 11.4775 9.84617C11.3134 8.9392 10.9335 8.18645 10.7424 7.83221C10.3831 7.16449 9.82426 5.79611 9.58389 4.84877ZM7.7197 3.50345C7.60417 3.50383 7.50089 3.52429 7.40843 3.55629C7.1396 3.64875 6.96118 3.84169 6.84937 3.94755C6.84936 3.94773 6.84937 3.94737 6.84937 3.94755C6.82741 3.96838 6.79874 3.98793 6.73029 4.03816C6.66126 4.08857 6.55782 4.16449 6.40899 4.27611C6.27672 4.37527 6.23374 4.50438 6.27951 4.65563C6.32509 4.80689 6.47095 4.98141 6.73774 5.13229L6.73866 5.13285C6.90424 5.23015 7.01736 5.36131 7.14722 5.46568C7.21215 5.51777 7.28044 5.56429 7.36266 5.59946C7.44489 5.63462 7.5409 5.65843 7.66108 5.6655C7.94312 5.68187 8.15076 5.59722 8.33401 5.4923C8.51764 5.38756 8.67317 5.25935 8.8516 5.20149C9.21734 5.08726 9.47895 4.85675 9.56061 4.63816C9.60154 4.52876 9.60025 4.42494 9.55151 4.32913C9.50258 4.23331 9.40266 4.14215 9.23261 4.07239L9.23169 4.072C8.87802 3.92057 8.72452 3.90978 8.52713 3.78141C8.20583 3.57491 7.94034 3.50253 7.7197 3.50345ZM6.82909 2.38103C6.82109 2.38103 6.81309 2.38121 6.80491 2.38158C6.69998 2.38698 6.6129 2.43014 6.52658 2.5159C6.44007 2.60148 6.38053 2.70568 6.33588 2.84967C6.29142 2.99367 6.27559 3.13284 6.28452 3.2947V3.296C6.2942 3.45786 6.32639 3.59498 6.38667 3.73191C6.43764 3.84781 6.49588 3.93563 6.57048 4.00558C6.60471 3.98028 6.63411 3.95869 6.65885 3.94064C6.69754 3.91237 6.72905 3.88664 6.77593 3.85036C6.76849 3.84516 6.76104 3.8392 6.75342 3.83269C6.70821 3.79362 6.67323 3.74282 6.6431 3.67157C6.6137 3.60236 6.59714 3.53389 6.58895 3.45147C6.58895 3.44813 6.58821 3.44534 6.58821 3.44199C6.58077 3.35697 6.58543 3.28292 6.60329 3.20758C6.62115 3.13205 6.64589 3.07511 6.68347 3.02934C6.72123 2.98339 6.76105 2.95995 6.80905 2.95585C6.81351 2.95548 6.81798 2.95529 6.82226 2.95529C6.86505 2.95492 6.90375 2.97129 6.94468 3.00663C6.98989 3.0457 7.0243 3.0965 7.055 3.1685C7.08383 3.23771 7.10115 3.30617 7.10934 3.38785C7.10934 3.39119 7.10933 3.39399 7.10988 3.39733C7.11584 3.45891 7.11473 3.51399 7.10711 3.56832C7.18561 3.51641 7.26687 3.47739 7.36919 3.44204C7.38723 3.43591 7.40547 3.43014 7.42426 3.42475C7.42965 3.36279 7.43021 3.29879 7.42593 3.23089V3.22958C7.417 3.06772 7.38481 2.93061 7.32435 2.7935C7.26407 2.65638 7.19206 2.55907 7.0968 2.48298C7.00899 2.41284 6.92416 2.38122 6.82909 2.38103ZM8.78052 2.22586C8.6345 2.22735 8.51113 2.27108 8.38556 2.36634C8.26018 2.46178 8.17105 2.57898 8.09906 2.74213C8.02706 2.90511 7.99636 3.06568 7.9984 3.25284V3.26717C7.99952 3.32001 8.00325 3.37042 8.00976 3.41935C8.12287 3.44633 8.28663 3.49286 8.41463 3.55667C8.40588 3.50607 8.40217 3.45397 8.40347 3.39704C8.40347 3.39295 8.40348 3.38941 8.40402 3.38532C8.40757 3.28188 8.42542 3.19481 8.4617 3.107C8.49815 3.01918 8.54188 2.95612 8.60085 2.90681C8.65706 2.85993 8.71139 2.83834 8.77389 2.83816C8.77705 2.83816 8.78004 2.83817 8.7832 2.83836C8.8498 2.84059 8.90524 2.86514 8.96087 2.91928C9.01629 2.97342 9.05464 3.03854 9.08478 3.12914C9.11361 3.21547 9.12663 3.29975 9.12458 3.39835C9.12458 3.40318 9.12329 3.40672 9.12329 3.41081C9.11994 3.5137 9.10207 3.60002 9.06561 3.68839C9.04159 3.74699 8.97706 3.7937 8.9443 3.83332C8.98952 3.84895 9.03337 3.86344 9.08957 3.88465C9.14574 3.90586 9.20844 3.9308 9.27933 3.96112C9.29981 3.96949 9.31951 3.97824 9.3385 3.98736C9.3945 3.91964 9.44118 3.84149 9.48174 3.74848C9.553 3.58531 9.58537 3.42549 9.58389 3.23777C9.58258 3.23294 9.58258 3.22884 9.5826 3.224C9.57904 3.04112 9.54407 2.88689 9.47151 2.72913C9.39747 2.56727 9.30555 2.45154 9.17811 2.35889C9.05253 2.26791 8.93029 2.22586 8.78741 2.22586H8.78052Z" fill="#6B7280"/>
</svg>
