<svg width="16" height="16" viewBox="0 0 16 16" fill="none" xmlns="http://www.w3.org/2000/svg">
<path d="M8.05213 1.99869C8.05782 1.9987 8.06395 1.99871 8.07053 1.99873L8.14133 1.99895C8.96312 2.00197 13.1282 2.03216 14.2512 2.33407C14.9397 2.51871 15.4818 3.06287 15.6657 3.7536C15.767 4.1331 15.8376 4.6375 15.8868 5.15625L15.8964 5.26016C15.9041 5.34686 15.9113 5.43375 15.9179 5.52032L15.9256 5.62402C15.9913 6.53813 15.999 7.39353 15.9999 7.58068L16 7.60593C16 7.608 16 7.61138 16 7.61138V7.62555C16 7.62555 16 7.62893 16 7.631L15.9999 7.65625C15.999 7.85047 15.9907 8.76436 15.9179 9.71667L15.9097 9.82067L15.901 9.92479C15.8514 10.4974 15.7772 11.0659 15.6657 11.4833C15.4818 12.1741 14.9397 12.7183 14.2512 12.9029C13.0908 13.215 8.68207 13.2368 8.07053 13.2383L8.02344 13.2384C8.01958 13.2384 8.01618 13.2384 8.01326 13.2384L7.99405 13.2384C7.99405 13.2384 7.98963 13.2384 7.98671 13.2384L7.92944 13.2383C7.62039 13.2376 6.34154 13.2316 5.00227 13.1856L4.83104 13.1795C4.80247 13.1785 4.77389 13.1774 4.74531 13.1763L4.57389 13.1695L4.40286 13.1623C3.29335 13.1136 2.2355 13.0337 1.74887 12.9029C1.06045 12.7183 0.518348 12.1741 0.334356 11.4833C0.22289 11.0659 0.148579 10.4974 0.0990381 9.92479L0.0903009 9.82067L0.0820931 9.71667C0.0118799 8.79899 0.00168768 7.91699 0.00020816 7.68026L3.13618e-05 7.64637C1.89549e-05 7.64332 8.61588e-06 7.64051 0 7.63795V7.59898C8.61588e-06 7.59642 1.89549e-05 7.59361 3.13618e-05 7.59056L0.00020816 7.55668C0.0015481 7.34229 0.0100344 6.59866 0.0637809 5.77857L0.0707377 5.6757C0.0719374 5.6585 0.0731574 5.64127 0.0743981 5.62402L0.0820931 5.52032C0.088717 5.43375 0.0958751 5.34686 0.10361 5.26016L0.113173 5.15625C0.162397 4.6375 0.233023 4.1331 0.334356 3.7536C0.518348 3.06287 1.06045 2.51871 1.74887 2.33407C2.2355 2.20324 3.29335 2.12344 4.40286 2.07476L4.57389 2.06751L4.74531 2.06074C4.77389 2.05965 4.80247 2.05858 4.83104 2.05753L5.00227 2.05144C6.25606 2.0084 7.45689 2.00043 7.85864 1.99895L7.92944 1.99873C7.93601 1.99871 7.94215 1.9987 7.94784 1.99869H8.05213ZM6.40003 5.20988V10.027L10.5568 7.6186L6.40003 5.20988Z" fill="#6B7280"/>
</svg>
